<?xml version="1.0" standalone="no"?>
<!DOCTYPE svg PUBLIC "-//W3C//DTD SVG 20010904//EN"
 "http://www.w3.org/TR/2001/REC-SVG-20010904/DTD/svg10.dtd">
<svg version="1.0" xmlns="http://www.w3.org/2000/svg"
 width="500.000000pt" height="500.000000pt" viewBox="0 0 500.000000 500.000000"
 preserveAspectRatio="xMidYMid meet">
<metadata>
Created by potrace 1.11, written by Peter Selinger 2001-2013
</metadata>
<g transform="translate(0.000000,500.000000) scale(0.100000,-0.100000)"
fill="#000000" stroke="none">
<path d="M2250 4334 c-687 -99 -1239 -536 -1491 -1181 -23 -58 -65 -203 -75
-253 -2 -14 -7 -36 -10 -50 -3 -13 -8 -40 -10 -60 -2 -19 -7 -46 -10 -60 -10
-44 -12 -389 -2 -438 5 -26 10 -65 13 -87 15 -142 99 -394 187 -563 36 -70
149 -245 195 -303 49 -63 258 -262 331 -317 165 -123 347 -217 533 -277 160
-51 165 -52 249 -65 41 -6 86 -14 100 -16 63 -12 315 -15 410 -5 120 13 141
16 230 37 36 9 72 17 80 19 60 13 223 76 315 120 93 46 248 136 265 155 3 3
30 24 60 46 380 285 646 749 707 1234 9 79 10 362 1 445 -20 175 -85 404 -160
562 -46 97 -119 227 -130 231 -4 2 -8 8 -8 13 0 6 -5 15 -10 22 -6 7 -34 44
-62 82 -72 97 -246 270 -350 348 -171 129 -410 251 -583 298 -121 32 -198 49
-245 55 -30 3 -64 9 -75 11 -48 12 -365 10 -455 -3z"/>
</g>
</svg>
